<svg xmlns="http://www.w3.org/2000/svg" width="52" height="34" viewBox="0 0 52 34" fill="none">
<path fill-rule="evenodd" clip-rule="evenodd" d="M25.6312 27.8235C23.9992 29.4824 22.3974 31.1783 20.6524 32.7224C18.587 34.548 15.2967 34.3924 13.303 32.4336C9.39458 28.5937 5.49749 24.739 1.62301 20.8658C-0.589359 18.6551 -0.517749 15.2448 1.70216 13.0526C5.57287 9.23496 9.42473 5.39876 13.2917 1.58107C15.3721 -0.470336 18.7566 -0.540691 20.8748 1.45887C22.4917 2.98817 24.0407 4.58412 25.6199 6.15044C25.243 6.70218 24.7266 7.12801 24.2593 7.59087C22.4841 9.36456 20.6901 11.1197 18.8923 12.8712C18.2441 13.5044 17.6938 14.1968 17.381 15.0448C16.7214 16.8296 16.8948 18.5551 18.0142 20.0993C18.8396 21.2397 19.9476 22.1507 20.9351 23.1579C22.4766 24.7353 24.0633 26.2683 25.6312 27.8198V27.8235Z" fill="#2C599B"/>
<path fill-rule="evenodd" clip-rule="evenodd" d="M25.6841 6.15412C26.6904 5.33578 27.5535 4.37302 28.4731 3.46952C29.2231 2.72894 29.9581 1.97355 30.7533 1.2811C31.9745 0.21467 33.4632 -0.118591 35.0311 0.129503C36.1693 0.307242 37.2057 0.788619 38.0575 1.64399C40.8842 4.48041 43.7524 7.27239 46.5904 10.094C47.8003 11.2974 49.1081 12.4194 50.1672 13.7562C51.6597 15.6372 51.6973 18.233 50.2237 20.1622C49.2513 21.4397 48.0151 22.4913 46.8769 23.6207C44.4685 26.0091 42.0564 28.3937 39.6292 30.7636C38.8 31.5708 38.0613 32.4817 37.0701 33.1186C36.0185 33.7962 34.8464 34.0369 33.5989 33.911C32.5134 33.8036 31.5561 33.363 30.7005 32.7335C30.2634 32.4114 29.9241 31.967 29.5359 31.5782C28.2997 30.3377 27.0635 29.0973 25.8273 27.8605C25.7971 27.8309 25.7444 27.8272 25.7029 27.8124C25.7482 27.7568 25.7934 27.6939 25.8424 27.642C28.1452 25.3499 30.4556 23.0615 32.7584 20.7695C34.8162 18.7217 34.8087 15.2336 32.7433 13.1933C30.8965 11.3678 29.046 9.54967 27.203 7.72414C26.6866 7.21314 26.1929 6.67993 25.6879 6.15412H25.6841Z" fill="#58C4E9"/>
<path fill-rule="evenodd" clip-rule="evenodd" d="M25.684 6.15403C26.1891 6.67614 26.6828 7.21306 27.1991 7.72406C29.0422 9.55329 30.8965 11.3714 32.7395 13.1932C34.8049 15.2335 34.8124 18.7217 32.7546 20.7694C30.4517 23.0615 28.1451 25.3536 25.8386 27.6419C25.7858 27.6938 25.7443 27.753 25.6991 27.8123C25.6765 27.8197 25.6501 27.8234 25.6275 27.8197C24.0596 26.2682 22.4729 24.7352 20.9314 23.1577C19.9439 22.1505 18.8359 21.2359 18.0105 20.0991C16.8911 18.555 16.7177 16.8332 17.3773 15.0447C17.6901 14.1967 18.2404 13.5043 18.8886 12.8711C20.6864 11.1196 22.4804 9.36444 24.2556 7.59076C24.7229 7.12419 25.2393 6.69836 25.6162 6.15033C25.6388 6.14292 25.6576 6.14292 25.6803 6.15033L25.684 6.15403Z" fill="#5266A8"/>
</svg>