<svg xmlns="http://www.w3.org/2000/svg" width="32" height="21" viewBox="0 0 32 21" fill="none">
<path fill-rule="evenodd" clip-rule="evenodd" d="M15.6254 17.1851C14.6306 18.2097 13.6541 19.2572 12.5902 20.2109C11.3311 21.3384 9.32529 21.2424 8.10983 20.0325C5.72718 17.6608 3.35141 15.28 0.98943 12.8877C-0.359289 11.5223 -0.315633 9.41588 1.03768 8.06193C3.39736 5.70394 5.74556 3.33453 8.10294 0.976543C9.37124 -0.290501 11.4345 -0.333956 12.7258 0.901069C13.7115 1.84563 14.6558 2.83137 15.6185 3.7988C15.3888 4.13958 15.074 4.40259 14.7891 4.68848C13.7069 5.78399 12.6132 6.86807 11.5172 7.94986C11.122 8.34095 10.7866 8.76864 10.5959 9.29238C10.1938 10.3948 10.2995 11.4605 10.9819 12.4142C11.4851 13.1187 12.1606 13.6813 12.7626 14.3034C13.7023 15.2777 14.6696 16.2245 15.6254 17.1828V17.1851Z" fill="white"/>
<path fill-rule="evenodd" clip-rule="evenodd" d="M15.6576 3.80099C16.2711 3.29555 16.7972 2.70091 17.3579 2.14286C17.8151 1.68544 18.2631 1.21888 18.7479 0.791191C19.4924 0.132511 20.3999 -0.0733264 21.3558 0.0799082C22.0496 0.189688 22.6815 0.487009 23.2008 1.01533C24.924 2.76723 26.6725 4.49169 28.4026 6.23445C29.1402 6.97775 29.9375 7.67074 30.5831 8.49638C31.493 9.65821 31.5159 11.2615 30.6176 12.453C30.0248 13.2421 29.2711 13.8916 28.5773 14.5892C27.1091 16.0643 25.6386 17.5372 24.1589 19.0009C23.6534 19.4995 23.2031 20.0622 22.5988 20.4555C21.9577 20.8741 21.2432 21.0227 20.4826 20.945C19.8209 20.8786 19.2373 20.6065 18.7158 20.2177C18.4492 20.0187 18.2424 19.7443 18.0058 19.5041C17.2522 18.7379 16.4985 17.9718 15.7449 17.2079C15.7265 17.1896 15.6944 17.1873 15.6691 17.1781C15.6967 17.1438 15.7242 17.105 15.7541 17.0729C17.158 15.6572 18.5664 14.2438 19.9703 12.8281C21.2248 11.5634 21.2202 9.40892 19.9611 8.14874C18.8352 7.02121 17.7071 5.89825 16.5835 4.77072C16.2688 4.4551 15.9678 4.12576 15.6599 3.80099H15.6576Z" fill="white"/>
<path fill-rule="evenodd" clip-rule="evenodd" d="M15.6576 3.80113C15.9655 4.12361 16.2665 4.45523 16.5812 4.77085C17.7048 5.90067 18.8352 7.02363 19.9588 8.14887C21.2179 9.40906 21.2225 11.5635 19.968 12.8282C18.5641 14.2439 17.1579 15.6597 15.7518 17.0731C15.7196 17.1051 15.6943 17.1417 15.6668 17.1783C15.653 17.1829 15.6369 17.1851 15.6231 17.1829C14.6673 16.2246 13.7 15.2777 12.7602 14.3034C12.1583 13.6813 11.4828 13.1164 10.9796 12.4143C10.2972 11.4606 10.1915 10.3971 10.5936 9.29241C10.7843 8.76867 11.1197 8.34099 11.5149 7.9499C12.6109 6.86811 13.7046 5.78403 14.7868 4.68852C15.0717 4.40034 15.3865 4.13733 15.6162 3.79884C15.63 3.79427 15.6415 3.79427 15.6553 3.79884L15.6576 3.80113Z" fill="white" fill-opacity="0.6"/>
</svg>